<?xml version="1.0" standalone="no"?><!DOCTYPE svg PUBLIC "-//W3C//DTD SVG 1.1//EN" "http://www.w3.org/Graphics/SVG/1.1/DTD/svg11.dtd"><svg t="1611818851155" class="icon" viewBox="0 0 1024 1024" version="1.1" xmlns="http://www.w3.org/2000/svg" p-id="5342" xmlns:xlink="http://www.w3.org/1999/xlink" width="128" height="128"><defs><style type="text/css"></style></defs><path d="M896 64H128c-35.296 0-64 28.704-64 64v768c0 35.296 28.704 64 64 64h768c35.296 0 64-28.704 64-64V128c0-35.296-28.704-64-64-64zM128 896V128h768l0.064 768H128z" p-id="5343" fill="#ffffff"></path><path d="M744.64 308.032l-310.368 331.296-157.696-132.48a32 32 0 0 0-41.184 49.024l180.896 152a32 32 0 0 0 43.936-2.624L791.36 351.776a32 32 0 1 0-46.72-43.744z" p-id="5344" fill="#ffffff"></path></svg>