<?xml version="1.0" standalone="no"?><!DOCTYPE svg PUBLIC "-//W3C//DTD SVG 1.1//EN" "http://www.w3.org/Graphics/SVG/1.1/DTD/svg11.dtd"><svg t="1611820429171" class="icon" viewBox="0 0 1024 1024" version="1.1" xmlns="http://www.w3.org/2000/svg" p-id="7751" xmlns:xlink="http://www.w3.org/1999/xlink" width="128" height="128"><defs><style type="text/css"></style></defs><path d="M443.72992 102.4h-307.2A34.22208 34.22208 0 0 0 102.4 136.52992v307.2a34.26304 34.26304 0 0 0 34.12992 34.12992h307.2a34.26304 34.26304 0 0 0 34.14016-34.12992v-307.2A34.23232 34.23232 0 0 0 443.72992 102.4zM409.6 409.6H170.67008V170.67008H409.6V409.6zM887.47008 102.4h-307.2a34.23232 34.23232 0 0 0-34.14016 34.12992v307.2a34.26304 34.26304 0 0 0 34.14016 34.12992h307.2A34.26304 34.26304 0 0 0 921.6 443.72992v-307.2A34.22208 34.22208 0 0 0 887.47008 102.4z m-34.14016 307.2H614.4V170.67008h238.92992V409.6zM443.72992 546.14016h-307.2A34.22208 34.22208 0 0 0 102.4 580.27008v307.2A34.26304 34.26304 0 0 0 136.52992 921.6h307.2a34.26304 34.26304 0 0 0 34.14016-34.12992v-307.2a34.22208 34.22208 0 0 0-34.14016-34.12992z m-34.12992 307.2H170.67008V614.4H409.6v238.94016zM887.47008 546.14016h-307.2a34.22208 34.22208 0 0 0-34.14016 34.12992v307.2A34.26304 34.26304 0 0 0 580.27008 921.6h307.2A34.26304 34.26304 0 0 0 921.6 887.47008v-307.2a34.22208 34.22208 0 0 0-34.12992-34.12992z m-34.14016 307.2H614.4V614.4h238.92992v238.94016z" p-id="7752" fill="#ffffff"></path></svg>