<?xml version="1.0" standalone="no"?><!DOCTYPE svg PUBLIC "-//W3C//DTD SVG 1.1//EN" "http://www.w3.org/Graphics/SVG/1.1/DTD/svg11.dtd"><svg t="1608690589209" class="icon" viewBox="0 0 1024 1024" version="1.1" xmlns="http://www.w3.org/2000/svg" p-id="1402" xmlns:xlink="http://www.w3.org/1999/xlink" width="128" height="128"><defs><style type="text/css"></style></defs><path d="M501.333333 917.333333c194.410667 0 352-9.557333 352-21.333333 0-8.256-77.354667-15.424-190.506666-18.965333-12.970667-0.405333-29.397333 6.912-43.242667 6.613333-10.24-0.213333-17.749333-8.106667-28.437333-8.277333a5650.986667 5650.986667 0 0 0-185.898667 0.106666c-9.237333 0.149333-16.597333 9.472-25.514667 9.685334-9.664 0.213333-20.8-8.682667-30.037333-8.426667C231.189333 880.170667 149.333333 887.509333 149.333333 896c0 11.776 157.589333 21.333333 352 21.333333z" fill="#D8D8D8" p-id="1403"></path><path d="M354.432 281.514667l5.056 8.064 41.109333 7.488h51.904v-40.32l-6.058666-56.704-17.216-36.48-8.917334-12.224-4.117333-9.066667L397.248 138.496l-8 3.776-18.090667 14.165333-11.669333 43.605334zM312.277333 275.605333l-50.986666 10.026667-47.957334 36.458667-13.013333 9.408-7.616-55.893334-3.925333-35.584 3.925333-35.541333 9.706667-15.594667 14.442666-6.869333 21.333334 6.869333 32.576 32.917334 36.010666 44.522666z" fill="#FFF0CC" p-id="1404"></path><path d="M69.333333 451.328L67.562667 424.896l3.733333-14.293333 4.757333-6.485334 41.109334-3.306666c11.52 10.752 12.373333 22.912 2.56 36.522666-9.792 13.610667-26.602667 23.552-50.389334 29.866667v-15.872z" fill="#000000" p-id="1405"></path><path d="M551.872 322.090667c-26.666667 78.421333-49.642667 131.072-68.906667 157.994666-54.016 75.456-123.669333 110.336-147.093333 133.312-53.973333 52.864-66.709333 65.578667-36.48 114.837334 30.208 49.28 110.357333 95.978667 118.229333 109.653333 5.248 9.109333 9.109333 7.36 11.605334-5.248h11.306666c-3.392-11.605333-3.392-17.408 0-17.408 5.056 0 112.789333 21.866667 259.84-10.453333 8.256-4.373333 13.376-9.344 15.36-14.890667l52.714667-31.338667 56.576-16.213333v-14.08l14.634667-40.106667 17.002666-43.754666c-14.762667-34.773333-20.416-60.032-17.002666-75.733334 3.413333-15.722667 16.021333-26.368 37.845333-31.936v-24.725333l15.68-12.928 15.36-31.146667v-23.253333l-15.36-32.384-10.581333-6.058667-5.098667 27.072-11.050667 16.256-3.733333 2.858667-26.688-37.226667-58.709333-40.96-64.213334-27.157333-72.896-15.573333-88.32-9.408z" fill="#FFAE48" p-id="1406"></path><path d="M364.309333 286.165333c-16.789333 2.901333-81.472 18.474667-103.04 35.925334-21.546667 17.450667-63.936 49.536-58.368 90.389333 5.568 40.853333-0.106667 77.866667 49.450667 92.906667 49.536 15.04 170.005333 3.584 216.448-65.365334 30.976-45.973333 42.837333-79.36 35.584-100.16l-22.272-17.770666-13.312-9.6 5.077333-69.973334-24.277333-66.602666-8.32-11.242667-10.24-8.234667 10.24 32.042667 13.973333 46.272-2.773333 22.016v29.397333l-2.88 8.064-3.413333 2.837334-22.314667-2.837334c-28.522667-7.317333-48.384-10.005333-59.562667-8.064z" fill="#FFAA56" p-id="1407"></path><path d="M402.688 133.162667c29.674667 0 60.330667 39.04 72.725333 98.133333 3.050667 14.613333 3.413333 38.613333 1.194667 72.256l-0.874667 11.904 31.68 21.717333a5.333333 5.333333 0 0 1 2.026667 6.122667l-0.64 1.28a5.333333 5.333333 0 0 1-6.144 2.026667l-1.28-0.64-36.757333-25.194667 0.256-3.093333c3.306667-40.618667 3.306667-68.8 0.085333-84.181334-11.456-54.762667-38.869333-89.664-62.272-89.664-27.733333 0-43.306667 52.970667-43.306667 160.085334a5.333333 5.333333 0 1 1-10.666666 0c0-113.429333 16.853333-170.752 53.973333-170.752z" fill="#000000" p-id="1408"></path><path d="M230.357333 300.330667C265.770667 276.053333 307.264 266.496 354.624 271.616a5.333333 5.333333 0 0 1-1.152 10.602667c-44.885333-4.864-83.84 4.117333-117.077333 26.901333-33.194667 22.762667-54.037333 54.677333-62.656 96.085333a5.333333 5.333333 0 1 1-10.453334-2.176c9.194667-44.053333 31.594667-78.378667 67.072-102.698666z" fill="#000000" p-id="1409"></path><path d="M200.256 181.461333c22.485333-17.792 61.44 13.397333 119.893333 90.944a5.333333 5.333333 0 1 1-8.512 6.4l-8.853333-11.562666C253.589333 203.925333 220.736 178.858667 206.890667 189.824 190.634667 202.709333 189.568 250.069333 205.546667 330.496a5.333333 5.333333 0 0 1-10.453334 2.069333l-2.944-15.466666c-13.653333-75.306667-11.456-120.106667 8.106667-135.616zM70.378667 400.213333c7.658667-7.125333 38.613333-5.973333 98.837333 2.176a5.333333 5.333333 0 1 1-1.429333 10.56l-12.117334-1.578666c-46.890667-5.909333-74.453333-6.677333-78.037333-3.349334-3.136 2.901333-5.653333 18.432-4.394667 37.333334 1.642667 24.448 8.746667 51.413333 21.546667 77.162666a127.445333 127.445333 0 0 0 37.888 45.333334c10.709333 8.106667 22.08 14.378667 34.304 19.562666l19.178667 7.552a5.333333 5.333333 0 1 1-4.8 9.472c8.981333 5.482667-35.946667-13.568-55.125334-28.074666a138.069333 138.069333 0 0 1-41.002666-49.066667c-25.258667-50.816-29.44-113.493333-14.848-127.082667z" fill="#000000" p-id="1410"></path><path d="M173.824 594.218667c4.714667 76.8 17.792 129.898667 38.890667 159.104 20.16 27.925333 61.802667 53.546667 124.949333 76.544l8.341333 2.986666-3.52 10.048c-69.696-24.405333-115.84-52.053333-138.432-83.349333-21.653333-29.973333-34.944-81.706667-40.256-155.370667l-0.618666-9.322666 10.666666-0.64z" fill="#000000" p-id="1411"></path><path d="M296.597333 738.005333a5.333333 5.333333 0 0 1 7.338667 1.749334c16.725333 27.349333 35.413333 67.093333 45.354667 96.426666 3.84 11.306667 3.968 19.136 1.941333 28.202667l-0.981333 4.821333c-0.085333 0.618667-0.042667 0.917333 0.064 1.152l0.128 0.256c0.64 1.024 2.474667 2.474667 6.101333 4.373334 19.989333 10.56 64.042667-2.346667 67.178667-22.869334l0.170666-2.304v-41.770666a5.333333 5.333333 0 0 1 10.517334-1.216l0.149333 1.216v41.770666c0 31.573333-56.128 48.789333-82.986667 34.602667-5.184-2.709333-8.384-5.226667-10.24-8.234667-2.538667-4.16-2.410667-5.610667-0.512-14.122666 1.642667-7.253333 1.536-13.141333-1.621333-22.464-9.685333-28.565333-28.053333-67.584-44.373333-94.272a5.333333 5.333333 0 0 1 1.770666-7.317334z" fill="#000000" p-id="1412"></path><path d="M714.666667 784.768a5.333333 5.333333 0 0 1 3.562666 6.656c-6.826667 22.677333-39.829333 37.610667-98.773333 46.506667-57.493333 8.64-121.130667 8.64-190.890667 0a5.333333 5.333333 0 1 1 1.322667-10.581334c68.842667 8.533333 131.498667 8.533333 187.968 0 55.04-8.277333 84.992-21.824 90.154667-38.997333a5.333333 5.333333 0 0 1 5.44-3.797333l1.216 0.213333z" fill="#000000" p-id="1413"></path><path d="M477.162667 316.757333c111.146667 0.341333 190.293333 8.725333 237.717333 25.28 99.285333 34.666667 140.608 66.24 162.474667 148.202667 11.328 42.517333 4.693333 94.848-14.4 151.765333l-3.072 8.832c-11.733333 32.682667-28.117333 67.456-32.128 72.170667-0.768 0.896 5.973333 44.586667 7.978666 50.453333l0.298667 0.618667 15.488 3.776c11.84 2.88 17.664 4.949333 20.629333 8.746667 12.373333 15.786667-18.645333 37.824-60.544 33.173333l-21.632-2.304a3633.493333 3633.493333 0 0 0-47.232-4.544l-38.869333-3.349333 0.853333-10.624c40.469333 3.306667 76.48 6.72 108.053334 10.24 19.904 2.197333 34.56-0.853333 43.605333-7.253334 5.546667-3.968 7.573333-8.490667 7.36-8.746666-0.64-0.853333-4.992-2.474667-11.989333-4.288l-14.357334-3.498667c-4.906667-1.28-7.253333-2.112-8.938666-3.797333-5.098667-5.12-13.610667-59.882667-8.832-65.514667 3.264-3.84 21.909333-43.733333 33.216-77.482667 18.496-55.104 24.896-105.557333 14.208-145.642666-20.736-77.696-59.392-107.242667-155.690667-140.864-44.437333-15.509333-118.826667-23.765333-222.976-24.618667l-11.264-0.064 0.042667-10.666667z" fill="#000000" p-id="1414"></path><path d="M884.992 400.896c4.629333 0.213333 9.237333 3.904 13.781333 9.856 9.109333 11.946667 15.573333 29.866667 15.082667 45.546667-0.704 21.397333-10.346667 40.277333-28.650667 56.448l-4.053333 3.413333-6.698667-8.32c18.624-15.018667 28.096-32.213333 28.736-51.904 0.426667-13.077333-5.184-28.608-12.885333-38.698667a33.408 33.408 0 0 0-3.754667-4.202666l-0.469333-0.405334 0.213333 2.325334c1.152 18.133333-6.826667 32.810667-23.317333 43.562666l-3.669333 2.24-5.290667-9.258666c14.4-8.277333 21.461333-18.901333 21.717333-32.426667l-0.064-3.456c-0.554667-8.874667 2.24-15.04 9.322667-14.72zM671.744 819.562667l10.666667-0.021334-0.128 14.826667c-0.362667 16.512-1.536 27.157333-3.626667 32.426667-5.397333 13.589333-36.778667 24.682667-67.114667 21.504-16.405333-1.706667-25.856-7.104-28.522666-15.936-1.706667-5.696-0.277333-11.562667 2.922666-16.981334l1.450667-2.304c2.176-3.157333 3.818667-8.746667 4.714667-16.704l0.362666-3.541333 10.624 0.853333c-0.832 10.112-2.624 17.813333-5.568 23.253334l-1.344 2.176c-2.517333 3.669333-3.754667 7.488-2.944 10.176 1.152 3.84 6.826667 7.082667 19.413334 8.405333 26.133333 2.730667 52.864-6.72 56.106666-14.826667 1.664-4.224 2.709333-15.701333 2.944-33.749333l0.042667-9.557333zM175.296 668.736l2.986667 10.24c-33.92 9.898667-53.162667 18.304-55.296 22.826667-3.52 7.424 5.226667 23.829333 18.986666 31.146666 9.258667 4.906667 26.346667 6.592 50.986667 4.778667l5.802667-0.490667 0.981333 10.624c-29.696 2.709333-50.474667 1.002667-62.762667-5.504-18.261333-9.685333-29.994667-31.68-23.637333-45.12 3.925333-8.277333 21.952-16.533333 56.106667-26.773333l5.824-1.706667zM417.984 141.738667a5.333333 5.333333 0 0 1 7.125333 2.453333c21.781333 44.629333 32.725333 77.781333 32.725334 99.84l-0.064 23.189333c-0.234667 33.642667-1.642667 35.2-9.813334 35.2-3.84 0-13.098667-2.346667-29.184-7.189333a5.333333 5.333333 0 1 1 3.072-10.24l7.466667 2.218667c6.890667 1.984 12.053333 3.349333 15.274667 4.010666l0.917333 0.170667 0.213333-0.853333 0.490667-3.626667a91.093333 91.093333 0 0 0 0.213333-2.261333l0.405334-6.72c0.213333-5.034667 0.298667-11.093333 0.32-21.397334v-12.501333c0-20.010667-10.496-51.882667-31.616-95.146667a5.333333 5.333333 0 0 1 2.453333-7.146666zM146.282667 498.965333a5.333333 5.333333 0 1 1 8.277333 6.72c-9.472 11.648-18.154667 19.584-26.261333 23.765334-8.426667 4.330667-20.650667 5.632-36.821334 4.138666a5.333333 5.333333 0 1 1 0.981334-10.602666c14.314667 1.301333 24.682667 0.213333 30.933333-3.029334 6.592-3.392 14.272-10.389333 22.890667-20.992z" fill="#000000" p-id="1415"></path><path d="M245.333333 416m-32 0a32 32 0 1 0 64 0 32 32 0 1 0-64 0Z" fill="#000000" p-id="1416"></path><path d="M233.642667 414.186667a10.666667 10.666667 0 1 0 0-21.333334 10.666667 10.666667 0 0 0 0 21.333334z" fill="#FFFFFF" p-id="1417"></path></svg>