<?xml version="1.0" standalone="no"?><!DOCTYPE svg PUBLIC "-//W3C//DTD SVG 1.1//EN" "http://www.w3.org/Graphics/SVG/1.1/DTD/svg11.dtd"><svg t="1611818675799" class="icon" viewBox="0 0 1024 1024" version="1.1" xmlns="http://www.w3.org/2000/svg" p-id="2482" xmlns:xlink="http://www.w3.org/1999/xlink" width="128" height="128"><defs><style type="text/css"></style></defs><path d="M937.232 98.84H99.664c-19.832 0-35.176 15.088-35.176 34.16v733.568c0 18.832 15.344 34.672 35.176 34.672h837.568c19.32 0 35.168-15.84 35.168-34.672V133c0.008-19.072-15.848-34.16-35.168-34.16z m-3.376 755.16H108.52V354.904h825.336v499.096z m0-541.192H108.52V139.336h825.336v173.472z" p-id="2483" fill="#ffffff"></path><path d="M785.864 445.016H620.088c-10.248 0-18.952 8.688-18.952 19.392v165.792c0 10.24 8.704 18.504 18.952 18.504h165.776c10.28 0 18.952-8.256 18.952-18.504V464.408c0.008-10.704-8.664-19.392-18.952-19.392z m-18.712 166.248H638.808V482.896h128.344v128.368zM458.32 433.416H245.344c-11.384 0-20.824 9.664-20.824 21.552 0 10.88 9.44 20.544 20.824 20.544H458.32a20.728 20.728 0 0 0 20.824-20.544c0-11.888-8.928-21.552-20.824-21.552zM458.32 525.816H245.344c-11.384 0-20.824 9.408-20.824 21.048 0 11.392 9.44 21.048 20.824 21.048H458.32c11.896 0 20.824-9.656 20.824-21.048 0-11.648-8.928-21.048-20.824-21.048zM458.32 618.168H245.344c-11.384 0-20.824 9.656-20.824 21.048s9.44 20.56 20.824 20.56H458.32c11.896 0 20.824-9.168 20.824-20.56s-8.928-21.048-20.824-21.048zM795.88 710.552H248.784c-13.264 0-24.256 9.16-24.256 20.544 0 11.408 11 21.048 24.256 21.048h547.104c13.304 0 24.528-9.64 24.528-21.048 0-11.384-11.24-20.544-24.536-20.544zM863.584 197.808c-19.576 0-35.168 15.368-35.168 34.184 0 19.808 15.592 35.176 35.168 35.176 19.328 0 34.664-15.368 34.664-35.176 0-18.816-15.344-34.184-34.664-34.184zM769.632 197.808c-19.064 0-34.664 15.368-34.664 34.184 0 19.808 15.6 35.176 34.664 35.176 19.584 0 35.176-15.368 35.176-35.176 0.008-18.816-15.6-34.184-35.176-34.184zM676.192 197.808c-19.32 0-34.656 15.368-34.656 34.184 0 19.808 15.336 35.176 34.656 35.176a35 35 0 0 0 35.176-35.176c0.008-18.816-15.848-34.184-35.176-34.184z" p-id="2484" fill="#ffffff"></path></svg>