<?xml version="1.0" standalone="no"?><!DOCTYPE svg PUBLIC "-//W3C//DTD SVG 1.1//EN" "http://www.w3.org/Graphics/SVG/1.1/DTD/svg11.dtd"><svg t="1611818641377" class="icon" viewBox="0 0 1024 1024" version="1.1" xmlns="http://www.w3.org/2000/svg" p-id="1907" xmlns:xlink="http://www.w3.org/1999/xlink" width="128" height="128"><defs><style type="text/css"></style></defs><path d="M71.037275 589.62282 343.25474 771.449571 293.661553 848.937992C354.738377 888.720061 426.716444 912.090533 504.085399 912.090533 673.24879 912.090533 817.384122 802.032783 874.652978 647.070874 894.693344 592.803593 926.172549 579.587703 953.425655 587.367905 917.541154 798.956542 733.862684 960.235198 512.059733 960.235198 291.033308 960.235198 107.832701 800.106399 71.037275 589.62282ZM954.396313 443.142974 680.356997 244.277431 723.842501 171.478038C663.527271 133.726886 593.027591 111.59587 517.361022 111.59587 343.971534 111.59587 196.745027 225.775185 141.641486 385.202123 131.800502 402.718777 103.188473 416.890393 75.382838 412.395497 120.749927 212.917692 298.843376 63.884268 512.059733 63.884268 736.087733 63.884268 921.169924 228.418363 954.396313 443.142974Z" p-id="1908" fill="#ffffff"></path></svg>