<?xml version="1.0" standalone="no"?><!DOCTYPE svg PUBLIC "-//W3C//DTD SVG 1.1//EN" "http://www.w3.org/Graphics/SVG/1.1/DTD/svg11.dtd"><svg t="1611818740177" class="icon" viewBox="0 0 1024 1024" version="1.1" xmlns="http://www.w3.org/2000/svg" p-id="3435" xmlns:xlink="http://www.w3.org/1999/xlink" width="128" height="128"><defs><style type="text/css"></style></defs><path d="M512 921.6c-226.48 0-409.6-183.11-409.6-409.6 0-226.48 183.12-409.6 409.6-409.6 226.48 0 409.6 183.12 409.6 409.6 0 226.49-183.11 409.6-409.6 409.6z m0-771.01c-197.58 0-361.41 163.84-361.41 361.41 0 197.57 163.84 361.41 361.41 361.41 202.39 0 361.41-163.84 361.41-361.41 0-197.57-159.02-361.41-361.41-361.41z m0 0" p-id="3436" fill="#ffffff"></path><path d="M352.98 512c0 56.81 30.3 109.32 79.51 137.72 49.2 28.41 109.82 28.41 159.03 0 49.2-28.41 79.51-80.91 79.51-137.72 0-56.82-30.3-109.32-79.51-137.73-49.2-28.41-109.82-28.41-159.03 0-49.21 28.41-79.52 80.92-79.51 137.73z m0 0" p-id="3437" fill="#ffffff"></path></svg>