<?xml version="1.0" standalone="no"?><!DOCTYPE svg PUBLIC "-//W3C//DTD SVG 1.1//EN" "http://www.w3.org/Graphics/SVG/1.1/DTD/svg11.dtd"><svg t="1611818701912" class="icon" viewBox="0 0 1024 1024" version="1.1" xmlns="http://www.w3.org/2000/svg" p-id="2864" xmlns:xlink="http://www.w3.org/1999/xlink" width="128" height="128"><defs><style type="text/css"></style></defs><path d="M804.97391799 131.59492334c6.30399865 0 11.63588534 5.1404101 11.63588533 11.22347421v738.37793387c0 6.17143792-5.21405494 11.19401627-11.63588533 11.19401628H219.02608201c-6.30399865 0-11.63588534-5.1404101-11.63588533-11.22347423V142.78893963c0-6.17143792 5.21405494-11.19401627 11.63588533-11.19401629h585.94783598m0-47.1327001H219.02608201c-32.47737616 0-58.76858542 26.11446164-58.76858542 58.32671639v738.37793384c0 31.97659121 26.3206672 58.35617429 58.76858542 58.35617432H804.95918901c32.47737616 0 58.76858542-26.11446164 58.76858542-58.32671637V142.81839755c0.01472898-31.97659121-26.30593824-58.35617429-58.75385644-58.35617431z" p-id="2865" fill="#ffffff"></path><path d="M512.04418691 242.76917968c5.16986804 0 10.33973609 1.97368181 14.1987259 5.84740061l114.87122751 114.87122752c3.80007395 3.80007395 5.93577442 8.95521301 5.92104546 14.31655765-0.01472898 5.3760736-2.1651584 10.5164837-5.97996133 14.30182867-7.90945623 7.85054035-20.67947216 7.87999829-28.61838634 0.05891588l-100.46629604-100.46629604-100.46629604 100.46629604a20.1919433 20.1919433 0 0 1-28.63311531-0.05891588c-7.90945623-7.90945623-7.80635344-20.90040671-0.05891589-28.60365735l114.87122752-114.90068545c3.770616-3.78534498 8.89629715-5.92104545 14.24291281-5.92104546l0.11783175 0.08837381zM512.04418691 781.23082032c5.16986804 0 10.33973609-1.97368181 14.1987259-5.84740061l114.87122751-114.87122752c3.80007395-3.80007395 5.93577442-8.95521301 5.92104546-14.31655765-0.01472898-5.3760736-2.1651584-10.5164837-5.97996133-14.30182867-7.90945623-7.85054035-20.67947216-7.87999829-28.61838634-0.05891588l-100.46629604 100.46629604-100.46629604-100.46629604a20.1919433 20.1919433 0 0 0-28.63311531 0.05891588c-7.90945623 7.90945623-7.80635344 20.90040671-0.05891589 28.60365735l114.87122752 114.90068545c3.770616 3.78534498 8.89629715 5.92104545 14.24291281 5.92104546l0.11783175-0.08837381z" p-id="2866" fill="#ffffff"></path></svg>