<?xml version="1.0" standalone="no"?><!DOCTYPE svg PUBLIC "-//W3C//DTD SVG 1.1//EN" "http://www.w3.org/Graphics/SVG/1.1/DTD/svg11.dtd"><svg t="1611818661800" class="icon" viewBox="0 0 1024 1024" version="1.1" xmlns="http://www.w3.org/2000/svg" p-id="2291" xmlns:xlink="http://www.w3.org/1999/xlink" width="128" height="128"><defs><style type="text/css"></style></defs><path d="M20.88777955 250.66185008V742.58962963h1011.351552V250.66185008H20.88777955z m985.46725927 466.04348681H46.7720723V276.55585185h959.58296652v440.14948504z" p-id="2292" fill="#ffffff"></path><path d="M291.91554845 599.77940385c-12.06833303 10.26245215-23.68034133 17.50539378-34.84573393 21.71911585-11.16539259 4.22343111-23.1463443 6.33029215-35.93314607 6.33029215-21.11715555 0-37.35066548-5.15549867-48.69082075-15.47620503-11.34015525-10.32070637-17.01994192-23.50557867-17.01994192-39.54490785 0-9.41776592 2.14569718-18.0102637 6.42738252-25.79691142a53.23465008 53.23465008 0 0 1 16.83547022-18.73844147 79.44905008 79.44905008 0 0 1 23.4376154-10.67994075c6.39825541-1.68937245 16.04903822-3.32049067 28.96205749-4.89335466 26.30178133-3.12630992 45.68101925-6.87399822 58.10858667-11.21393778 0.11650845-4.46615703 0.1844717-7.30119585 0.1844717-8.51482548 0-13.26254459-3.07776475-22.6220563-9.23329423-28.05911704-8.33035378-7.35945008-20.69966697-11.03917511-37.10793955-11.03917512-15.32086045 0-26.64159763 2.67969422-33.94279348 8.04879172-7.30119585 5.37880652-12.69942045 14.87424475-16.19467377 28.51544178l-31.85535053-4.33993957c2.89329303-13.631488 7.66043022-24.641536 14.30141156-33.030144s16.23350992-14.84511763 28.77758577-19.36952888 27.09792237-6.78661689 43.62270342-6.78661689c16.40827259 0 29.74848948 1.93209837 40.00123258 5.79629511 10.26245215 3.86419675 17.79666489 8.71871525 22.63176534 14.57326459s8.2041363 13.24312652 10.13623466 22.17544059c1.08741215 5.54386015 1.63111822 15.56358637 1.63111823 30.04946963v43.44794075c0 30.28248652 0.68934163 49.44812563 2.07773392 57.46779022 1.3883923 8.01966459 4.13604978 15.71893097 8.23326341 23.07838103h-34.03017481c-3.37874489-6.76719882-5.55356918-14.66064592-6.51476385-23.71917748z m-2.71853037-72.75952355c-11.82560711 4.82539141-29.56401778 8.93231408-53.215232 12.31105895-13.38876208 1.92238933-22.86478222 4.10692267-28.41835141 6.51476386-5.55356918 2.41755022-9.83525452 5.94193067-12.85476504 10.59255941a27.81639111 27.81639111 0 0 0-4.52441126 15.47620503c0 8.68958815 3.29136355 15.93252978 9.86438163 21.71911586s16.20438282 8.68958815 28.87467615 8.68958814c12.54407585 0 23.70946845-2.73794845 33.48646874-8.2332634s16.95197867-13.01010963 21.54435319-22.53467497c3.49525333-7.35945008 5.25258903-18.22386252 5.25258903-32.57381926v-11.96153362zM381.87948563 623.4888723v-37.10793955h37.10793955v37.10793955h-37.10793955zM484.87295052 623.4888723v-37.10793955h37.10793956v37.10793955h-37.10793956zM587.86641541 623.4888723v-37.10793955h37.09823051v37.10793955h-37.09823051zM690.8598803 623.4888723v-37.10793955h37.10793955v37.10793955h-37.10793955zM822.68918518 320.24651852h20.22392415V638.21748148H822.68918518z" p-id="2293" fill="#ffffff"></path></svg>