<?xml version="1.0" standalone="no"?><!DOCTYPE svg PUBLIC "-//W3C//DTD SVG 1.1//EN" "http://www.w3.org/Graphics/SVG/1.1/DTD/svg11.dtd"><svg t="1611818776428" class="icon" viewBox="0 0 1024 1024" version="1.1" xmlns="http://www.w3.org/2000/svg" p-id="4006" xmlns:xlink="http://www.w3.org/1999/xlink" width="128" height="128"><defs><style type="text/css"></style></defs><path d="M433.388308 157.538462a39.384615 39.384615 0 0 1 39.108923 34.776615l0.275692 4.608v118.153846a39.384615 39.384615 0 0 0 34.737231 39.108923l4.608 0.275692H787.692308a78.769231 78.769231 0 0 1 78.76923 78.769231v354.461539a78.769231 78.769231 0 0 1-78.76923 78.76923H236.307692a78.769231 78.769231 0 0 1-78.76923-78.76923V236.307692a78.769231 78.769231 0 0 1 78.76923-78.76923h197.080616z m-0.039385 39.384615H236.307692a39.384615 39.384615 0 0 0-39.108923 34.776615L196.923077 236.307692v551.384616a39.384615 39.384615 0 0 0 34.776615 39.108923L236.307692 827.076923h551.384616a39.384615 39.384615 0 0 0 39.108923-34.776615L827.076923 787.692308v-354.461539a39.384615 39.384615 0 0 0-34.776615-39.108923L787.692308 393.846154l-277.779693-0.078769-6.931692-0.433231a78.769231 78.769231 0 0 1-69.356308-71.995077l-0.275692-6.301539V196.923077zM827.076923 157.538462a39.384615 39.384615 0 0 1 39.384615 39.384615v78.769231a39.384615 39.384615 0 0 1-39.384615 39.384615h-275.692308a39.384615 39.384615 0 0 1-39.384615-39.384615V196.923077a39.384615 39.384615 0 0 1 39.384615-39.384615h275.692308z m0 39.384615h-275.692308v78.769231h275.692308V196.923077z" fill="#ffffff" p-id="4007"></path></svg>