<?xml version="1.0" standalone="no"?><!DOCTYPE svg PUBLIC "-//W3C//DTD SVG 1.1//EN" "http://www.w3.org/Graphics/SVG/1.1/DTD/svg11.dtd"><svg t="1612406716325" class="icon" viewBox="0 0 1024 1024" version="1.1" xmlns="http://www.w3.org/2000/svg" p-id="3867" xmlns:xlink="http://www.w3.org/1999/xlink" width="128" height="128"><defs><style type="text/css"></style></defs><path d="M898.602667 733.376L646.933333 481.706667a287.189333 287.189333 0 0 0-65.130666-306.474667 286.506667 286.506667 0 0 0-292.906667-69.930667 52.266667 52.266667 0 0 0-34.794667 37.824 53.226667 53.226667 0 0 0 14.186667 50.432l99.754667 99.754667c20.693333 20.693333 23.424 53.226667 6.208 74.069333a52.949333 52.949333 0 0 1-38.741334 19.52 53.12 53.12 0 0 1-40.277333-15.552l-101.973333-101.952a53.418667 53.418667 0 0 0-50.624-14.144 52.458667 52.458667 0 0 0-37.888 35.242667c-31.061333 97.877333-8.554667 205.290667 58.730666 280.362667a288.853333 288.853333 0 0 0 317.546667 76.821333l249.066667 249.066667a123.221333 123.221333 0 0 0 86.997333 36.032c26.197333 0 52.138667-8.469333 73.066667-25.770667a117.696 117.696 0 0 0 42.688-85.013333 117.525333 117.525333 0 0 0-34.24-88.618667z m-49.216 124.266667c-20.864 17.216-53.354667 14.485333-74.069334-6.186667l-254.08-254.058667a52.864 52.864 0 0 0-37.589333-15.509333c-6.954667 0-14.016 1.344-20.778667 4.074667a224.64 224.64 0 0 1-251.797333-57.856c-48.213333-53.802667-66.752-129.237333-50.218667-200.597334l89.066667 89.066667a117.909333 117.909333 0 0 0 88.554667 34.24 118.016 118.016 0 0 0 85.077333-42.709333c37.973333-45.973333 33.472-116.288-10.282667-160.064l-86.912-86.912c75.562667-18.069333 154.666667 3.861333 210.176 59.328a223.402667 223.402667 0 0 1 48.704 243.157333 53.525333 53.525333 0 0 0 11.392 58.282667l256.682667 256.682666c10.602667 10.602667 16.277333 25.301333 15.552 40.277334a52.842667 52.842667 0 0 1-19.477333 38.784z" p-id="3868" fill="#ffffff"></path><path d="M491.306667 265.749333a32.021333 32.021333 0 0 0 0 45.248c10.069333 10.090667 15.616 23.466667 15.616 37.717334s-5.546667 27.626667-15.616 37.717333a32 32 0 1 0 45.269333 45.248 116.48 116.48 0 0 0 34.368-82.965333 116.48 116.48 0 0 0-34.368-82.965334 32 32 0 0 0-45.269333 0z" p-id="3869" fill="#ffffff"></path></svg>