<?xml version="1.0" standalone="no"?><!DOCTYPE svg PUBLIC "-//W3C//DTD SVG 1.1//EN" "http://www.w3.org/Graphics/SVG/1.1/DTD/svg11.dtd"><svg t="1611886928461" class="icon" viewBox="0 0 1024 1024" version="1.1" xmlns="http://www.w3.org/2000/svg" p-id="2503" xmlns:xlink="http://www.w3.org/1999/xlink" width="128" height="128"><defs><style type="text/css"></style></defs><path d="M642.56 314.88a62.138182 62.138182 0 1 0-124.043636 0v199.912727a138.007273 138.007273 0 1 1-276.014546 0v-199.912727a62.138182 62.138182 0 0 0-124.276363 0v199.912727a262.283636 262.283636 0 0 0 524.334545 0z m204.8-62.138182a62.370909 62.370909 0 0 0-62.138182 62.138182v400.058182a62.138182 62.138182 0 0 0 124.276364 0V314.88a62.138182 62.138182 0 0 0-62.138182-62.138182z" fill="#ffffff" p-id="2504"></path></svg>