<?xml version="1.0" standalone="no"?><!DOCTYPE svg PUBLIC "-//W3C//DTD SVG 1.1//EN" "http://www.w3.org/Graphics/SVG/1.1/DTD/svg11.dtd"><svg t="1611820448679" class="icon" viewBox="0 0 1024 1024" version="1.1" xmlns="http://www.w3.org/2000/svg" p-id="7941" xmlns:xlink="http://www.w3.org/1999/xlink" width="128" height="128"><defs><style type="text/css"></style></defs><path d="M481.834667 353.834667a42.624 42.624 0 1 1 60.330666 60.330666 42.624 42.624 0 1 1-60.330666-60.330666zM512 469.333333a42.666667 42.666667 0 0 1 42.666667 42.666667v170.666667a42.666667 42.666667 0 0 1-85.333334 0v-170.666667a42.666667 42.666667 0 0 1 42.666667-42.666667z m0-341.333333c-212.096 0-384 171.904-384 384s171.904 384 384 384 384-171.904 384-384-171.904-384-384-384z m0-85.333333c259.2 0 469.333333 210.133333 469.333333 469.333333s-210.133333 469.333333-469.333333 469.333333S42.666667 771.2 42.666667 512 252.8 42.666667 512 42.666667z" p-id="7942" fill="#ffffff"></path></svg>